<svg id="グループ_121" data-name="グループ 121" xmlns="http://www.w3.org/2000/svg" width="48.76" height="48.761" viewBox="0 0 48.76 48.761">
  <path id="パス_1592" data-name="パス 1592" d="M0,0H48.76V48.76H0Z" fill="none"/>
  <path id="パス_1593" data-name="パス 1593" d="M3,21.285H5.032M21.285,3V5.032M37.539,21.285H39.57m-31.288-13L9.7,9.7M34.288,8.282,32.866,9.7" transform="translate(3.095 3.095)" fill="none" stroke="#000" stroke-linecap="round" stroke-linejoin="round" stroke-width="2.5"/>
  <path id="パス_1594" data-name="パス 1594" d="M11.064,25.285a10.158,10.158,0,1,1,12.19,0,7.111,7.111,0,0,0-2.032,6.1,4.063,4.063,0,1,1-8.127,0,7.111,7.111,0,0,0-2.032-6.1" transform="translate(7.221 7.222)" fill="none" stroke="#000" stroke-linecap="round" stroke-linejoin="round" stroke-width="2.5"/>
  <line id="線_106" data-name="線 106" x2="9.346" transform="translate(19.707 34.539)" fill="none" stroke="#000" stroke-linecap="round" stroke-linejoin="round" stroke-width="2.5"/>
</svg>
